<?xml version="1.0" encoding="UTF-8"?> <!-- Generator: Adobe Illustrator 22.0.1, SVG Export Plug-In . SVG Version: 6.00 Build 0) --> <svg xmlns="http://www.w3.org/2000/svg" xmlns:xlink="http://www.w3.org/1999/xlink" baseProfile="tiny" id="Layer_1" x="0px" y="0px" viewBox="0 0 526.5 344" xml:space="preserve"> <g> <g id="Vector_Smart_Object_41_"> <g> <g> <g> <path d="M458.11,117.77c-26.66,10.31-38.24,34-46.17,59.66c-7.79,25.19-20.2,48.47-44.58,61.05 c0.53-5.42-0.18-15.29,2.02-20.48c2.02-4.79,8.07-9.46,10.88-14.02c9.82-15.94,10.9-34.54,8.83-52.74 c11.92,8.4,23.32-6.48,15.53-17.29c-6.93-9.61-26.16-14.95-37.11-17.65c-30.64-7.56-54.16,9.83-71.7,33.56 c-17.77-26.05-54.85-40.75-85.38-31.46c-32.68,9.95-52.65,42.69-53.12,75.93c-0.52,37.05,34.25,53.43,66.49,40.04 c15.34-6.37,27.23-17.95,35.01-32.51c5.6-10.48,16.62-34.54,9.22-46.21c20.3,14.37,10.69,35.26,17.84,54.84 c8.34,22.84,33.34,33.06,55.5,22.38c-0.2,4.5,1.01,13.22-1.86,16.86c-3.47,4.39-14.74,6.72-20.03,8.33 c-15.02,4.58-28.97,9.29-39.24,22.01c-21.13,26.17-13.35,65.03,25.26,63.11c31.77-1.58,50.89-29.99,55.71-59.15 c1.06-6.42,0.17-12.57,5.16-17.22c4.5-4.2,12.68-6.33,17.93-9.99c13.34-9.31,24.67-21.58,33.56-35.16 c13.53,19.67,41.23,20.27,61.17,11.45c18.91-8.36,31.72-24.94,38.69-44.03c7.1-19.46,12.21-45.22-2.73-62.6 C501.7,111.03,475.77,110.96,458.11,117.77 M231.51,184.79c-5.29,10.66-20.42,30.12-34.12,20.94 c-12.25-8.21-5.12-30.09,0.31-40.12c4.98-9.19,17.46-25.03,30-20.85C243.31,149.96,236.5,174.73,231.51,184.79 M334.86,281.64 c-2.83,10.06-20.51,49.09-35.9,31.91c-16.04-17.9,26.37-32.99,36.48-34.95C335.25,279.62,335.06,280.63,334.86,281.64 M356.12,184.62c-5.18,10.45-20.01,29.53-33.46,20.57c-12.04-8.02-5.07-29.51,0.26-39.35c4.89-9.02,17.1-24.56,29.41-20.51 C367.71,150.39,361.03,174.74,356.12,184.62 M485,184.26c-5.29,10.66-20.42,30.12-34.12,20.94 c-12.25-8.21-5.12-30.09,0.32-40.12c4.98-9.19,17.46-25.03,30-20.85C496.8,149.43,489.99,174.2,485,184.26"></path> </g> <g> <path d="M270.07,246.24c-9.24-11.12-23.16,5.3-31.63,9.51c-13.41,6.66-29.35,9.44-44.28,9.19 c-27.73-0.46-58.04-19.31-70.71-44.38c-7.01-13.87,1.76-28.41,6.32-42.08c4.92-14.74,9.71-29.52,14.22-44.39 c3.66-12.08,11.84-12.53,22.73-18.84c13.09-7.59,26.74-16.39,37.52-27.08c18.51-18.35,33.94-56.72,10.02-77.38 c-21.69-18.74-53.99-1.61-68.74,17.52c-8.68,11.26-13.91,24.46-17.68,38.04c-3.06,11.03-4.52,34.12-13.27,40.79 c-6.71,5.11-32.46,11.68-39.3,4.42C64.56,100.2,88.41,93.73,92.2,87.08c8.48-14.85-9.94-19.41-20.04-15.16 c-13.3,5.59-26.13,16.22-29.65,30.77c-9.71,40.19,41.07,41.65,66.9,35.72c-3.49,11.01-7,22-10.47,33.02 c-1.76,5.6-3.39,20.09-10.1,21.47c-6.84,1.41-21.99-8.29-29.63-9.83c-10.1-2.03-20.85-2.58-30.76,0.7 c-19.75,6.53-33.11,29.81-24.5,49.83c9.02,20.99,36.17,30.94,57.44,29.33c12.52-0.95,22.88-5.57,33.77-11.3 c10.18-5.36,11.49-3.25,19.34,5.11c14.89,15.87,33.85,27.74,55.08,32.92c21.04,5.13,43.81,3.65,64.21-3.48 C245.58,282.05,284.31,263.57,270.07,246.24 M178.83,39.25c4.46-3.01,12.08-4.82,15.41,0.67c3.3,5.44-2.17,15.09-4.92,19.65 c-7.95,13.2-21.3,22.71-35.49,28.21C156.76,71.31,163.51,48.43,178.83,39.25 M52.52,235.67c-7.75-0.79-20.4-4.97-21.07-14.5 c-0.86-12.32,16.4-14.63,25.08-13.39c7.14,1.02,21.02,6.04,21.48,14.99C78.59,233.99,60.53,236.49,52.52,235.67"></path> </g> </g> </g> </g> <g> <path fill="#0020BF" d="M395.91,291.79v-0.11c0-8.51,6.51-15.52,15.63-15.52c5.62,0,9.12,1.89,11.91,5.01l-5.17,5.56 c-1.89-2-3.78-3.28-6.79-3.28c-4.23,0-7.23,3.73-7.23,8.12v0.11c0,4.56,2.95,8.23,7.57,8.23c2.84,0,4.78-1.22,6.84-3.17l4.95,5.01 c-2.89,3.17-6.23,5.45-12.18,5.45C402.47,307.21,395.91,300.31,395.91,291.79z"></path> <path fill="#0020BF" d="M427.84,291.79v-0.11c0-8.57,6.9-15.52,16.19-15.52c9.24,0,16.08,6.84,16.08,15.41v0.11 c0,8.57-6.9,15.52-16.19,15.52C434.68,307.21,427.84,300.36,427.84,291.79z M451.76,291.79v-0.11c0-4.39-3.17-8.23-7.84-8.23 c-4.84,0-7.73,3.73-7.73,8.12v0.11c0,4.4,3.17,8.23,7.84,8.23C448.87,299.92,451.76,296.19,451.76,291.79z"></path> <path fill="#0020BF" d="M467.23,276.72h8.46v6.01c1.72-4.12,4.51-6.79,9.51-6.56v8.85h-0.45c-5.62,0-9.07,3.39-9.07,10.51v11.02 h-8.46V276.72z"></path> <path fill="#0020BF" d="M489.2,291.79v-0.11c0-8.51,6.06-15.52,14.74-15.52c9.96,0,14.52,7.73,14.52,16.19 c0,0.67-0.06,1.45-0.11,2.23H497.6c0.83,3.84,3.5,5.84,7.29,5.84c2.84,0,4.9-0.89,7.23-3.06l4.84,4.28 c-2.78,3.45-6.79,5.56-12.18,5.56C495.82,307.21,489.2,300.92,489.2,291.79z M510.23,289.29c-0.5-3.78-2.73-6.34-6.29-6.34 c-3.5,0-5.79,2.5-6.45,6.34H510.23z"></path> </g> </g> </svg> 